<?xml version="1.0" encoding="utf-8"?>
<!-- Credit: Generated using boxy-svg.com-->
<svg viewBox="0 0 400 220" xmlns="http://www.w3.org/2000/svg">
  <defs>
    <!-- bx:fonts="Roboto Mono" -->
    <style>@import url(https://fonts.googleapis.com/css2?family=Roboto+Mono%3Aital%2Cwght%400%2C100%3B0%2C200%3B0%2C300%3B0%2C400%3B0%2C500%3B0%2C600%3B0%2C700%3B1%2C100%3B1%2C200%3B1%2C300%3B1%2C400%3B1%2C500%3B1%2C600%3B1%2C700&amp;display=swap);</style>
  </defs>
  <rect style="stroke: rgb(0, 0, 0); fill: rgb(189, 100, 236);" x="40" y="30" width="225" height="184" rx="5" ry="5" transform="matrix(1, 0, 0, 1, 0, 7.105427357601002e-15)"/>
  <text style="fill: rgb(255, 255, 255); font-family: Arial, sans-serif; font-size: 24px; font-weight: 700; line-height: 42px; white-space: pre;" transform="matrix(0.7045720219612123, 0, 0, 0.7045769691467285, 50, 50)">Page</text>

  <rect style="stroke: rgb(0, 0, 0); fill: rgb(234, 150, 99);" x="120" y="120" width="120" height="74" rx="5" ry="5" transform="matrix(1, 0, 0, 1, 0, 7.105427357601002e-15)"/>
  <text style="fill: rgb(255, 255, 255); font-family: Arial, sans-serif; font-size: 24px; font-weight: 700; line-height: 42px; white-space: pre;" transform="matrix(0.7045720219612123, 0, 0, 0.7045769691467285, 130, 140)">Blog post</text>

  <ellipse style="fill: rgb(216, 216, 216); stroke: rgb(0, 0, 0);" cx="90" cy="85" rx="75" ry="25" transform="matrix(1, 0, 0, 1, 0, 7.105427357601002e-15)"/>
  <text style="fill: rgb(51, 51, 51); font-family: 'Roboto Mono'; font-size: 18px; white-space: pre;" transform="matrix(0.7045729756355287, 0, 0, 0.7045720219612122, 40, 90)">Raw content</text>
  <!-- bx:shape="arrow 121.008 141.354 45.578 24 8 24 0 1@d9971086" (moved up/left) -->
  <path d="M 121.008 149.354 H 142.586 L 142.586 141.354 L 166.586 153.354 L 142.586 165.354 L 142.586 157.354 H 121.008 V 149.354 Z" style="fill: rgb(216, 216, 216); stroke: rgb(0, 0, 0);" transform="matrix(0.7612069249153138, 0.6485090851783752, -0.6485090851783752, 0.7612069249153137, 160, -100)" />

  <ellipse style="fill: rgb(216, 216, 216); stroke: rgb(0, 0, 0);" cx="303" cy="55" rx="84" ry="52" transform="matrix(1, 0, 0, 1, 0, 7.105427357601002e-15)"/>
  <text style="fill: rgb(51, 51, 51); font-family: 'Roboto Mono'; font-size: 18px; white-space: pre;" transform="matrix(0.7045729756355287, 0, 0, 0.7045720219612122, 285, 30)">Spacing</text>
  <text style="fill: rgb(51, 51, 51); font-family: 'Roboto Mono'; font-size: 18px; white-space: pre;" transform="matrix(0.7045729756355287, 0, 0, 0.7045720219612122, 235, 60)">Text sizes</text>
  <text style="fill: rgb(51, 51, 51); font-family: 'Roboto Mono'; font-size: 18px; white-space: pre;" transform="matrix(0.7045720219612123, 0, 0, 0.7045769691467285, 270, 90)">Link color</text>
  <!-- bx:shape="arrow 260.716 129.954 47.765 24 8 24 0 1@390a9809" (moved up/left) -->
  <path d="M 260.716 137.954 H 284.481 L 284.481 129.954 L 308.481 141.954 L 284.481 153.954 L 284.481 145.954 H 260.716 V 137.954 Z" style="fill: rgb(216, 216, 216); stroke: rgb(0, 0, 0);" transform="matrix(-0.6598440408706666, 0.7514029741287233, -0.7514029741287233, -0.6598440408706665, 520, -15)" /> 
</svg>
